%TF.GenerationSoftware,KiCad,Pcbnew,8.0.6*%
%TF.CreationDate,2024-10-30T20:06:30-05:00*%
%TF.ProjectId,PiLEDLights,50694c45-444c-4696-9768-74732e6b6963,rev?*%
%TF.SameCoordinates,Original*%
%TF.FileFunction,Legend,Top*%
%TF.FilePolarity,Positive*%
%FSLAX46Y46*%
G04 Gerber Fmt 4.6, Leading zero omitted, Abs format (unit mm)*
G04 Created by KiCad (PCBNEW 8.0.6) date 2024-10-30 20:06:30*
%MOMM*%
%LPD*%
G01*
G04 APERTURE LIST*
%ADD10C,0.100000*%
%ADD11C,0.120000*%
G04 APERTURE END LIST*
D10*
X122457143Y-95183942D02*
X122457143Y-95564895D01*
X122190476Y-94764895D02*
X122457143Y-95183942D01*
X122457143Y-95183942D02*
X122723809Y-94764895D01*
X123295238Y-95526800D02*
X123219047Y-95564895D01*
X123219047Y-95564895D02*
X123066666Y-95564895D01*
X123066666Y-95564895D02*
X122990476Y-95526800D01*
X122990476Y-95526800D02*
X122952380Y-95450609D01*
X122952380Y-95450609D02*
X122952380Y-95145847D01*
X122952380Y-95145847D02*
X122990476Y-95069657D01*
X122990476Y-95069657D02*
X123066666Y-95031561D01*
X123066666Y-95031561D02*
X123219047Y-95031561D01*
X123219047Y-95031561D02*
X123295238Y-95069657D01*
X123295238Y-95069657D02*
X123333333Y-95145847D01*
X123333333Y-95145847D02*
X123333333Y-95222038D01*
X123333333Y-95222038D02*
X122952380Y-95298228D01*
X123790475Y-95564895D02*
X123714285Y-95526800D01*
X123714285Y-95526800D02*
X123676190Y-95450609D01*
X123676190Y-95450609D02*
X123676190Y-94764895D01*
X124209523Y-95564895D02*
X124133333Y-95526800D01*
X124133333Y-95526800D02*
X124095238Y-95450609D01*
X124095238Y-95450609D02*
X124095238Y-94764895D01*
X124628571Y-95564895D02*
X124552381Y-95526800D01*
X124552381Y-95526800D02*
X124514286Y-95488704D01*
X124514286Y-95488704D02*
X124476190Y-95412514D01*
X124476190Y-95412514D02*
X124476190Y-95183942D01*
X124476190Y-95183942D02*
X124514286Y-95107752D01*
X124514286Y-95107752D02*
X124552381Y-95069657D01*
X124552381Y-95069657D02*
X124628571Y-95031561D01*
X124628571Y-95031561D02*
X124742857Y-95031561D01*
X124742857Y-95031561D02*
X124819048Y-95069657D01*
X124819048Y-95069657D02*
X124857143Y-95107752D01*
X124857143Y-95107752D02*
X124895238Y-95183942D01*
X124895238Y-95183942D02*
X124895238Y-95412514D01*
X124895238Y-95412514D02*
X124857143Y-95488704D01*
X124857143Y-95488704D02*
X124819048Y-95526800D01*
X124819048Y-95526800D02*
X124742857Y-95564895D01*
X124742857Y-95564895D02*
X124628571Y-95564895D01*
X125161905Y-95031561D02*
X125314286Y-95564895D01*
X125314286Y-95564895D02*
X125466667Y-95183942D01*
X125466667Y-95183942D02*
X125619048Y-95564895D01*
X125619048Y-95564895D02*
X125771429Y-95031561D01*
X128914285Y-94802990D02*
X128838095Y-94764895D01*
X128838095Y-94764895D02*
X128723809Y-94764895D01*
X128723809Y-94764895D02*
X128609523Y-94802990D01*
X128609523Y-94802990D02*
X128533333Y-94879180D01*
X128533333Y-94879180D02*
X128495238Y-94955371D01*
X128495238Y-94955371D02*
X128457142Y-95107752D01*
X128457142Y-95107752D02*
X128457142Y-95222038D01*
X128457142Y-95222038D02*
X128495238Y-95374419D01*
X128495238Y-95374419D02*
X128533333Y-95450609D01*
X128533333Y-95450609D02*
X128609523Y-95526800D01*
X128609523Y-95526800D02*
X128723809Y-95564895D01*
X128723809Y-95564895D02*
X128800000Y-95564895D01*
X128800000Y-95564895D02*
X128914285Y-95526800D01*
X128914285Y-95526800D02*
X128952381Y-95488704D01*
X128952381Y-95488704D02*
X128952381Y-95222038D01*
X128952381Y-95222038D02*
X128800000Y-95222038D01*
X129295238Y-95564895D02*
X129295238Y-95031561D01*
X129295238Y-95183942D02*
X129333333Y-95107752D01*
X129333333Y-95107752D02*
X129371428Y-95069657D01*
X129371428Y-95069657D02*
X129447619Y-95031561D01*
X129447619Y-95031561D02*
X129523809Y-95031561D01*
X130095238Y-95526800D02*
X130019047Y-95564895D01*
X130019047Y-95564895D02*
X129866666Y-95564895D01*
X129866666Y-95564895D02*
X129790476Y-95526800D01*
X129790476Y-95526800D02*
X129752380Y-95450609D01*
X129752380Y-95450609D02*
X129752380Y-95145847D01*
X129752380Y-95145847D02*
X129790476Y-95069657D01*
X129790476Y-95069657D02*
X129866666Y-95031561D01*
X129866666Y-95031561D02*
X130019047Y-95031561D01*
X130019047Y-95031561D02*
X130095238Y-95069657D01*
X130095238Y-95069657D02*
X130133333Y-95145847D01*
X130133333Y-95145847D02*
X130133333Y-95222038D01*
X130133333Y-95222038D02*
X129752380Y-95298228D01*
X130780952Y-95526800D02*
X130704761Y-95564895D01*
X130704761Y-95564895D02*
X130552380Y-95564895D01*
X130552380Y-95564895D02*
X130476190Y-95526800D01*
X130476190Y-95526800D02*
X130438094Y-95450609D01*
X130438094Y-95450609D02*
X130438094Y-95145847D01*
X130438094Y-95145847D02*
X130476190Y-95069657D01*
X130476190Y-95069657D02*
X130552380Y-95031561D01*
X130552380Y-95031561D02*
X130704761Y-95031561D01*
X130704761Y-95031561D02*
X130780952Y-95069657D01*
X130780952Y-95069657D02*
X130819047Y-95145847D01*
X130819047Y-95145847D02*
X130819047Y-95222038D01*
X130819047Y-95222038D02*
X130438094Y-95298228D01*
X131161904Y-95031561D02*
X131161904Y-95564895D01*
X131161904Y-95107752D02*
X131199999Y-95069657D01*
X131199999Y-95069657D02*
X131276189Y-95031561D01*
X131276189Y-95031561D02*
X131390475Y-95031561D01*
X131390475Y-95031561D02*
X131466666Y-95069657D01*
X131466666Y-95069657D02*
X131504761Y-95145847D01*
X131504761Y-95145847D02*
X131504761Y-95564895D01*
X117542857Y-95564895D02*
X117276190Y-95183942D01*
X117085714Y-95564895D02*
X117085714Y-94764895D01*
X117085714Y-94764895D02*
X117390476Y-94764895D01*
X117390476Y-94764895D02*
X117466666Y-94802990D01*
X117466666Y-94802990D02*
X117504761Y-94841085D01*
X117504761Y-94841085D02*
X117542857Y-94917276D01*
X117542857Y-94917276D02*
X117542857Y-95031561D01*
X117542857Y-95031561D02*
X117504761Y-95107752D01*
X117504761Y-95107752D02*
X117466666Y-95145847D01*
X117466666Y-95145847D02*
X117390476Y-95183942D01*
X117390476Y-95183942D02*
X117085714Y-95183942D01*
X118190476Y-95526800D02*
X118114285Y-95564895D01*
X118114285Y-95564895D02*
X117961904Y-95564895D01*
X117961904Y-95564895D02*
X117885714Y-95526800D01*
X117885714Y-95526800D02*
X117847618Y-95450609D01*
X117847618Y-95450609D02*
X117847618Y-95145847D01*
X117847618Y-95145847D02*
X117885714Y-95069657D01*
X117885714Y-95069657D02*
X117961904Y-95031561D01*
X117961904Y-95031561D02*
X118114285Y-95031561D01*
X118114285Y-95031561D02*
X118190476Y-95069657D01*
X118190476Y-95069657D02*
X118228571Y-95145847D01*
X118228571Y-95145847D02*
X118228571Y-95222038D01*
X118228571Y-95222038D02*
X117847618Y-95298228D01*
X118914285Y-95564895D02*
X118914285Y-94764895D01*
X118914285Y-95526800D02*
X118838094Y-95564895D01*
X118838094Y-95564895D02*
X118685713Y-95564895D01*
X118685713Y-95564895D02*
X118609523Y-95526800D01*
X118609523Y-95526800D02*
X118571428Y-95488704D01*
X118571428Y-95488704D02*
X118533332Y-95412514D01*
X118533332Y-95412514D02*
X118533332Y-95183942D01*
X118533332Y-95183942D02*
X118571428Y-95107752D01*
X118571428Y-95107752D02*
X118609523Y-95069657D01*
X118609523Y-95069657D02*
X118685713Y-95031561D01*
X118685713Y-95031561D02*
X118838094Y-95031561D01*
X118838094Y-95031561D02*
X118914285Y-95069657D01*
D11*
%TO.C,Yellow*%
X122764000Y-93830000D02*
X122920000Y-93830000D01*
X125080000Y-93830000D02*
X125236000Y-93830000D01*
X122764484Y-93830000D02*
G75*
G02*
X122921392Y-90597665I1235516J1560000D01*
G01*
X122920000Y-93310961D02*
G75*
G02*
X122920163Y-91228870I1080000J1040961D01*
G01*
X125078608Y-90597665D02*
G75*
G02*
X125235516Y-93830000I-1078608J-1672335D01*
G01*
X125079837Y-91228870D02*
G75*
G02*
X125080000Y-93310961I-1079837J-1041130D01*
G01*
%TO.C,Green*%
X128764000Y-93830000D02*
X128920000Y-93830000D01*
X131080000Y-93830000D02*
X131236000Y-93830000D01*
X128764484Y-93830000D02*
G75*
G02*
X128921392Y-90597665I1235516J1560000D01*
G01*
X128920000Y-93310961D02*
G75*
G02*
X128920163Y-91228870I1080000J1040961D01*
G01*
X131078608Y-90597665D02*
G75*
G02*
X131235516Y-93830000I-1078608J-1672335D01*
G01*
X131079837Y-91228870D02*
G75*
G02*
X131080000Y-93310961I-1079837J-1041130D01*
G01*
%TO.C,Red*%
X116764000Y-93830000D02*
X116920000Y-93830000D01*
X119080000Y-93830000D02*
X119236000Y-93830000D01*
X116764484Y-93830000D02*
G75*
G02*
X116921392Y-90597665I1235516J1560000D01*
G01*
X116920000Y-93310961D02*
G75*
G02*
X116920163Y-91228870I1080000J1040961D01*
G01*
X119078608Y-90597665D02*
G75*
G02*
X119235516Y-93830000I-1078608J-1672335D01*
G01*
X119079837Y-91228870D02*
G75*
G02*
X119080000Y-93310961I-1079837J-1041130D01*
G01*
%TD*%
M02*
