%TF.GenerationSoftware,KiCad,Pcbnew,8.0.6*%
%TF.CreationDate,2024-10-30T20:06:35-05:00*%
%TF.ProjectId,PiLEDLights,50694c45-444c-4696-9768-74732e6b6963,rev?*%
%TF.SameCoordinates,Original*%
%TF.FileFunction,Drillmap*%
%TF.FilePolarity,Positive*%
%FSLAX45Y45*%
G04 Gerber Fmt 4.5, Leading zero omitted, Abs format (unit mm)*
G04 Created by KiCad (PCBNEW 8.0.6) date 2024-10-30 20:06:35*
%MOMM*%
%LPD*%
G01*
G04 APERTURE LIST*
%ADD10C,0.050000*%
%ADD11C,0.200000*%
%ADD12C,0.100000*%
G04 APERTURE END LIST*
D10*
X11540000Y-8940000D02*
X13270000Y-8940000D01*
X13270000Y-9900000D01*
X11540000Y-9900000D01*
X11540000Y-8940000D01*
D11*
D12*
X11755000Y-9055000D02*
X11845000Y-9145000D01*
X11845000Y-9055000D02*
X11755000Y-9145000D01*
X11755000Y-9309000D02*
X11845000Y-9399000D01*
X11845000Y-9309000D02*
X11755000Y-9399000D01*
X12355000Y-9055000D02*
X12445000Y-9145000D01*
X12445000Y-9055000D02*
X12355000Y-9145000D01*
X12355000Y-9309000D02*
X12445000Y-9399000D01*
X12445000Y-9309000D02*
X12355000Y-9399000D01*
X12955000Y-9055000D02*
X13045000Y-9145000D01*
X13045000Y-9055000D02*
X12955000Y-9145000D01*
X12955000Y-9309000D02*
X13045000Y-9399000D01*
X13045000Y-9309000D02*
X12955000Y-9399000D01*
X12288000Y-9690000D02*
G75*
G02*
X12188000Y-9690000I-50000J0D01*
G01*
X12188000Y-9690000D02*
G75*
G02*
X12288000Y-9690000I50000J0D01*
G01*
X12542000Y-9690000D02*
G75*
G02*
X12442000Y-9690000I-50000J0D01*
G01*
X12442000Y-9690000D02*
G75*
G02*
X12542000Y-9690000I50000J0D01*
G01*
X12796000Y-9690000D02*
G75*
G02*
X12696000Y-9690000I-50000J0D01*
G01*
X12696000Y-9690000D02*
G75*
G02*
X12796000Y-9690000I50000J0D01*
G01*
X13050000Y-9690000D02*
G75*
G02*
X12950000Y-9690000I-50000J0D01*
G01*
X12950000Y-9690000D02*
G75*
G02*
X13050000Y-9690000I50000J0D01*
G01*
D11*
X11798277Y-10213984D02*
X11798277Y-10013984D01*
X11798277Y-10013984D02*
X11845896Y-10013984D01*
X11845896Y-10013984D02*
X11874467Y-10023508D01*
X11874467Y-10023508D02*
X11893515Y-10042555D01*
X11893515Y-10042555D02*
X11903039Y-10061603D01*
X11903039Y-10061603D02*
X11912562Y-10099698D01*
X11912562Y-10099698D02*
X11912562Y-10128270D01*
X11912562Y-10128270D02*
X11903039Y-10166365D01*
X11903039Y-10166365D02*
X11893515Y-10185412D01*
X11893515Y-10185412D02*
X11874467Y-10204460D01*
X11874467Y-10204460D02*
X11845896Y-10213984D01*
X11845896Y-10213984D02*
X11798277Y-10213984D01*
X11998277Y-10213984D02*
X11998277Y-10080650D01*
X11998277Y-10118746D02*
X12007801Y-10099698D01*
X12007801Y-10099698D02*
X12017324Y-10090174D01*
X12017324Y-10090174D02*
X12036372Y-10080650D01*
X12036372Y-10080650D02*
X12055420Y-10080650D01*
X12122086Y-10213984D02*
X12122086Y-10080650D01*
X12122086Y-10013984D02*
X12112562Y-10023508D01*
X12112562Y-10023508D02*
X12122086Y-10033031D01*
X12122086Y-10033031D02*
X12131610Y-10023508D01*
X12131610Y-10023508D02*
X12122086Y-10013984D01*
X12122086Y-10013984D02*
X12122086Y-10033031D01*
X12245896Y-10213984D02*
X12226848Y-10204460D01*
X12226848Y-10204460D02*
X12217324Y-10185412D01*
X12217324Y-10185412D02*
X12217324Y-10013984D01*
X12350658Y-10213984D02*
X12331610Y-10204460D01*
X12331610Y-10204460D02*
X12322086Y-10185412D01*
X12322086Y-10185412D02*
X12322086Y-10013984D01*
X12579229Y-10213984D02*
X12579229Y-10013984D01*
X12579229Y-10013984D02*
X12645896Y-10156841D01*
X12645896Y-10156841D02*
X12712562Y-10013984D01*
X12712562Y-10013984D02*
X12712562Y-10213984D01*
X12893515Y-10213984D02*
X12893515Y-10109222D01*
X12893515Y-10109222D02*
X12883991Y-10090174D01*
X12883991Y-10090174D02*
X12864943Y-10080650D01*
X12864943Y-10080650D02*
X12826848Y-10080650D01*
X12826848Y-10080650D02*
X12807801Y-10090174D01*
X12893515Y-10204460D02*
X12874467Y-10213984D01*
X12874467Y-10213984D02*
X12826848Y-10213984D01*
X12826848Y-10213984D02*
X12807801Y-10204460D01*
X12807801Y-10204460D02*
X12798277Y-10185412D01*
X12798277Y-10185412D02*
X12798277Y-10166365D01*
X12798277Y-10166365D02*
X12807801Y-10147317D01*
X12807801Y-10147317D02*
X12826848Y-10137793D01*
X12826848Y-10137793D02*
X12874467Y-10137793D01*
X12874467Y-10137793D02*
X12893515Y-10128270D01*
X12988753Y-10080650D02*
X12988753Y-10280650D01*
X12988753Y-10090174D02*
X13007801Y-10080650D01*
X13007801Y-10080650D02*
X13045896Y-10080650D01*
X13045896Y-10080650D02*
X13064943Y-10090174D01*
X13064943Y-10090174D02*
X13074467Y-10099698D01*
X13074467Y-10099698D02*
X13083991Y-10118746D01*
X13083991Y-10118746D02*
X13083991Y-10175889D01*
X13083991Y-10175889D02*
X13074467Y-10194936D01*
X13074467Y-10194936D02*
X13064943Y-10204460D01*
X13064943Y-10204460D02*
X13045896Y-10213984D01*
X13045896Y-10213984D02*
X13007801Y-10213984D01*
X13007801Y-10213984D02*
X12988753Y-10204460D01*
X13169705Y-10194936D02*
X13179229Y-10204460D01*
X13179229Y-10204460D02*
X13169705Y-10213984D01*
X13169705Y-10213984D02*
X13160182Y-10204460D01*
X13160182Y-10204460D02*
X13169705Y-10194936D01*
X13169705Y-10194936D02*
X13169705Y-10213984D01*
X13169705Y-10090174D02*
X13179229Y-10099698D01*
X13179229Y-10099698D02*
X13169705Y-10109222D01*
X13169705Y-10109222D02*
X13160182Y-10099698D01*
X13160182Y-10099698D02*
X13169705Y-10090174D01*
X13169705Y-10090174D02*
X13169705Y-10109222D01*
D12*
X11447500Y-10497500D02*
X11537500Y-10587500D01*
X11537500Y-10497500D02*
X11447500Y-10587500D01*
D11*
X11836372Y-10433984D02*
X11855420Y-10433984D01*
X11855420Y-10433984D02*
X11874467Y-10443508D01*
X11874467Y-10443508D02*
X11883991Y-10453031D01*
X11883991Y-10453031D02*
X11893515Y-10472079D01*
X11893515Y-10472079D02*
X11903039Y-10510174D01*
X11903039Y-10510174D02*
X11903039Y-10557793D01*
X11903039Y-10557793D02*
X11893515Y-10595889D01*
X11893515Y-10595889D02*
X11883991Y-10614936D01*
X11883991Y-10614936D02*
X11874467Y-10624460D01*
X11874467Y-10624460D02*
X11855420Y-10633984D01*
X11855420Y-10633984D02*
X11836372Y-10633984D01*
X11836372Y-10633984D02*
X11817324Y-10624460D01*
X11817324Y-10624460D02*
X11807801Y-10614936D01*
X11807801Y-10614936D02*
X11798277Y-10595889D01*
X11798277Y-10595889D02*
X11788753Y-10557793D01*
X11788753Y-10557793D02*
X11788753Y-10510174D01*
X11788753Y-10510174D02*
X11798277Y-10472079D01*
X11798277Y-10472079D02*
X11807801Y-10453031D01*
X11807801Y-10453031D02*
X11817324Y-10443508D01*
X11817324Y-10443508D02*
X11836372Y-10433984D01*
X11988753Y-10614936D02*
X11998277Y-10624460D01*
X11998277Y-10624460D02*
X11988753Y-10633984D01*
X11988753Y-10633984D02*
X11979229Y-10624460D01*
X11979229Y-10624460D02*
X11988753Y-10614936D01*
X11988753Y-10614936D02*
X11988753Y-10633984D01*
X12093515Y-10633984D02*
X12131610Y-10633984D01*
X12131610Y-10633984D02*
X12150658Y-10624460D01*
X12150658Y-10624460D02*
X12160182Y-10614936D01*
X12160182Y-10614936D02*
X12179229Y-10586365D01*
X12179229Y-10586365D02*
X12188753Y-10548270D01*
X12188753Y-10548270D02*
X12188753Y-10472079D01*
X12188753Y-10472079D02*
X12179229Y-10453031D01*
X12179229Y-10453031D02*
X12169705Y-10443508D01*
X12169705Y-10443508D02*
X12150658Y-10433984D01*
X12150658Y-10433984D02*
X12112562Y-10433984D01*
X12112562Y-10433984D02*
X12093515Y-10443508D01*
X12093515Y-10443508D02*
X12083991Y-10453031D01*
X12083991Y-10453031D02*
X12074467Y-10472079D01*
X12074467Y-10472079D02*
X12074467Y-10519698D01*
X12074467Y-10519698D02*
X12083991Y-10538746D01*
X12083991Y-10538746D02*
X12093515Y-10548270D01*
X12093515Y-10548270D02*
X12112562Y-10557793D01*
X12112562Y-10557793D02*
X12150658Y-10557793D01*
X12150658Y-10557793D02*
X12169705Y-10548270D01*
X12169705Y-10548270D02*
X12179229Y-10538746D01*
X12179229Y-10538746D02*
X12188753Y-10519698D01*
X12312562Y-10433984D02*
X12331610Y-10433984D01*
X12331610Y-10433984D02*
X12350658Y-10443508D01*
X12350658Y-10443508D02*
X12360182Y-10453031D01*
X12360182Y-10453031D02*
X12369705Y-10472079D01*
X12369705Y-10472079D02*
X12379229Y-10510174D01*
X12379229Y-10510174D02*
X12379229Y-10557793D01*
X12379229Y-10557793D02*
X12369705Y-10595889D01*
X12369705Y-10595889D02*
X12360182Y-10614936D01*
X12360182Y-10614936D02*
X12350658Y-10624460D01*
X12350658Y-10624460D02*
X12331610Y-10633984D01*
X12331610Y-10633984D02*
X12312562Y-10633984D01*
X12312562Y-10633984D02*
X12293515Y-10624460D01*
X12293515Y-10624460D02*
X12283991Y-10614936D01*
X12283991Y-10614936D02*
X12274467Y-10595889D01*
X12274467Y-10595889D02*
X12264943Y-10557793D01*
X12264943Y-10557793D02*
X12264943Y-10510174D01*
X12264943Y-10510174D02*
X12274467Y-10472079D01*
X12274467Y-10472079D02*
X12283991Y-10453031D01*
X12283991Y-10453031D02*
X12293515Y-10443508D01*
X12293515Y-10443508D02*
X12312562Y-10433984D01*
X12503039Y-10433984D02*
X12522086Y-10433984D01*
X12522086Y-10433984D02*
X12541134Y-10443508D01*
X12541134Y-10443508D02*
X12550658Y-10453031D01*
X12550658Y-10453031D02*
X12560182Y-10472079D01*
X12560182Y-10472079D02*
X12569705Y-10510174D01*
X12569705Y-10510174D02*
X12569705Y-10557793D01*
X12569705Y-10557793D02*
X12560182Y-10595889D01*
X12560182Y-10595889D02*
X12550658Y-10614936D01*
X12550658Y-10614936D02*
X12541134Y-10624460D01*
X12541134Y-10624460D02*
X12522086Y-10633984D01*
X12522086Y-10633984D02*
X12503039Y-10633984D01*
X12503039Y-10633984D02*
X12483991Y-10624460D01*
X12483991Y-10624460D02*
X12474467Y-10614936D01*
X12474467Y-10614936D02*
X12464943Y-10595889D01*
X12464943Y-10595889D02*
X12455420Y-10557793D01*
X12455420Y-10557793D02*
X12455420Y-10510174D01*
X12455420Y-10510174D02*
X12464943Y-10472079D01*
X12464943Y-10472079D02*
X12474467Y-10453031D01*
X12474467Y-10453031D02*
X12483991Y-10443508D01*
X12483991Y-10443508D02*
X12503039Y-10433984D01*
X12655420Y-10633984D02*
X12655420Y-10500650D01*
X12655420Y-10519698D02*
X12664943Y-10510174D01*
X12664943Y-10510174D02*
X12683991Y-10500650D01*
X12683991Y-10500650D02*
X12712563Y-10500650D01*
X12712563Y-10500650D02*
X12731610Y-10510174D01*
X12731610Y-10510174D02*
X12741134Y-10529222D01*
X12741134Y-10529222D02*
X12741134Y-10633984D01*
X12741134Y-10529222D02*
X12750658Y-10510174D01*
X12750658Y-10510174D02*
X12769705Y-10500650D01*
X12769705Y-10500650D02*
X12798277Y-10500650D01*
X12798277Y-10500650D02*
X12817324Y-10510174D01*
X12817324Y-10510174D02*
X12826848Y-10529222D01*
X12826848Y-10529222D02*
X12826848Y-10633984D01*
X12922086Y-10633984D02*
X12922086Y-10500650D01*
X12922086Y-10519698D02*
X12931610Y-10510174D01*
X12931610Y-10510174D02*
X12950658Y-10500650D01*
X12950658Y-10500650D02*
X12979229Y-10500650D01*
X12979229Y-10500650D02*
X12998277Y-10510174D01*
X12998277Y-10510174D02*
X13007801Y-10529222D01*
X13007801Y-10529222D02*
X13007801Y-10633984D01*
X13007801Y-10529222D02*
X13017324Y-10510174D01*
X13017324Y-10510174D02*
X13036372Y-10500650D01*
X13036372Y-10500650D02*
X13064943Y-10500650D01*
X13064943Y-10500650D02*
X13083991Y-10510174D01*
X13083991Y-10510174D02*
X13093515Y-10529222D01*
X13093515Y-10529222D02*
X13093515Y-10633984D01*
X13483991Y-10424460D02*
X13312563Y-10681603D01*
X13741134Y-10433984D02*
X13760182Y-10433984D01*
X13760182Y-10433984D02*
X13779229Y-10443508D01*
X13779229Y-10443508D02*
X13788753Y-10453031D01*
X13788753Y-10453031D02*
X13798277Y-10472079D01*
X13798277Y-10472079D02*
X13807801Y-10510174D01*
X13807801Y-10510174D02*
X13807801Y-10557793D01*
X13807801Y-10557793D02*
X13798277Y-10595889D01*
X13798277Y-10595889D02*
X13788753Y-10614936D01*
X13788753Y-10614936D02*
X13779229Y-10624460D01*
X13779229Y-10624460D02*
X13760182Y-10633984D01*
X13760182Y-10633984D02*
X13741134Y-10633984D01*
X13741134Y-10633984D02*
X13722086Y-10624460D01*
X13722086Y-10624460D02*
X13712563Y-10614936D01*
X13712563Y-10614936D02*
X13703039Y-10595889D01*
X13703039Y-10595889D02*
X13693515Y-10557793D01*
X13693515Y-10557793D02*
X13693515Y-10510174D01*
X13693515Y-10510174D02*
X13703039Y-10472079D01*
X13703039Y-10472079D02*
X13712563Y-10453031D01*
X13712563Y-10453031D02*
X13722086Y-10443508D01*
X13722086Y-10443508D02*
X13741134Y-10433984D01*
X13893515Y-10614936D02*
X13903039Y-10624460D01*
X13903039Y-10624460D02*
X13893515Y-10633984D01*
X13893515Y-10633984D02*
X13883991Y-10624460D01*
X13883991Y-10624460D02*
X13893515Y-10614936D01*
X13893515Y-10614936D02*
X13893515Y-10633984D01*
X14026848Y-10433984D02*
X14045896Y-10433984D01*
X14045896Y-10433984D02*
X14064944Y-10443508D01*
X14064944Y-10443508D02*
X14074467Y-10453031D01*
X14074467Y-10453031D02*
X14083991Y-10472079D01*
X14083991Y-10472079D02*
X14093515Y-10510174D01*
X14093515Y-10510174D02*
X14093515Y-10557793D01*
X14093515Y-10557793D02*
X14083991Y-10595889D01*
X14083991Y-10595889D02*
X14074467Y-10614936D01*
X14074467Y-10614936D02*
X14064944Y-10624460D01*
X14064944Y-10624460D02*
X14045896Y-10633984D01*
X14045896Y-10633984D02*
X14026848Y-10633984D01*
X14026848Y-10633984D02*
X14007801Y-10624460D01*
X14007801Y-10624460D02*
X13998277Y-10614936D01*
X13998277Y-10614936D02*
X13988753Y-10595889D01*
X13988753Y-10595889D02*
X13979229Y-10557793D01*
X13979229Y-10557793D02*
X13979229Y-10510174D01*
X13979229Y-10510174D02*
X13988753Y-10472079D01*
X13988753Y-10472079D02*
X13998277Y-10453031D01*
X13998277Y-10453031D02*
X14007801Y-10443508D01*
X14007801Y-10443508D02*
X14026848Y-10433984D01*
X14160182Y-10433984D02*
X14283991Y-10433984D01*
X14283991Y-10433984D02*
X14217325Y-10510174D01*
X14217325Y-10510174D02*
X14245896Y-10510174D01*
X14245896Y-10510174D02*
X14264944Y-10519698D01*
X14264944Y-10519698D02*
X14274467Y-10529222D01*
X14274467Y-10529222D02*
X14283991Y-10548270D01*
X14283991Y-10548270D02*
X14283991Y-10595889D01*
X14283991Y-10595889D02*
X14274467Y-10614936D01*
X14274467Y-10614936D02*
X14264944Y-10624460D01*
X14264944Y-10624460D02*
X14245896Y-10633984D01*
X14245896Y-10633984D02*
X14188753Y-10633984D01*
X14188753Y-10633984D02*
X14169706Y-10624460D01*
X14169706Y-10624460D02*
X14160182Y-10614936D01*
X14464944Y-10433984D02*
X14369706Y-10433984D01*
X14369706Y-10433984D02*
X14360182Y-10529222D01*
X14360182Y-10529222D02*
X14369706Y-10519698D01*
X14369706Y-10519698D02*
X14388753Y-10510174D01*
X14388753Y-10510174D02*
X14436372Y-10510174D01*
X14436372Y-10510174D02*
X14455420Y-10519698D01*
X14455420Y-10519698D02*
X14464944Y-10529222D01*
X14464944Y-10529222D02*
X14474467Y-10548270D01*
X14474467Y-10548270D02*
X14474467Y-10595889D01*
X14474467Y-10595889D02*
X14464944Y-10614936D01*
X14464944Y-10614936D02*
X14455420Y-10624460D01*
X14455420Y-10624460D02*
X14436372Y-10633984D01*
X14436372Y-10633984D02*
X14388753Y-10633984D01*
X14388753Y-10633984D02*
X14369706Y-10624460D01*
X14369706Y-10624460D02*
X14360182Y-10614936D01*
X14645896Y-10500650D02*
X14645896Y-10633984D01*
X14598277Y-10424460D02*
X14550658Y-10567317D01*
X14550658Y-10567317D02*
X14674467Y-10567317D01*
X14741134Y-10433984D02*
X14741134Y-10472079D01*
X14817325Y-10433984D02*
X14817325Y-10472079D01*
X15112563Y-10710174D02*
X15103039Y-10700650D01*
X15103039Y-10700650D02*
X15083991Y-10672079D01*
X15083991Y-10672079D02*
X15074468Y-10653031D01*
X15074468Y-10653031D02*
X15064944Y-10624460D01*
X15064944Y-10624460D02*
X15055420Y-10576841D01*
X15055420Y-10576841D02*
X15055420Y-10538746D01*
X15055420Y-10538746D02*
X15064944Y-10491127D01*
X15064944Y-10491127D02*
X15074468Y-10462555D01*
X15074468Y-10462555D02*
X15083991Y-10443508D01*
X15083991Y-10443508D02*
X15103039Y-10414936D01*
X15103039Y-10414936D02*
X15112563Y-10405412D01*
X15274468Y-10433984D02*
X15236372Y-10433984D01*
X15236372Y-10433984D02*
X15217325Y-10443508D01*
X15217325Y-10443508D02*
X15207801Y-10453031D01*
X15207801Y-10453031D02*
X15188753Y-10481603D01*
X15188753Y-10481603D02*
X15179229Y-10519698D01*
X15179229Y-10519698D02*
X15179229Y-10595889D01*
X15179229Y-10595889D02*
X15188753Y-10614936D01*
X15188753Y-10614936D02*
X15198277Y-10624460D01*
X15198277Y-10624460D02*
X15217325Y-10633984D01*
X15217325Y-10633984D02*
X15255420Y-10633984D01*
X15255420Y-10633984D02*
X15274468Y-10624460D01*
X15274468Y-10624460D02*
X15283991Y-10614936D01*
X15283991Y-10614936D02*
X15293515Y-10595889D01*
X15293515Y-10595889D02*
X15293515Y-10548270D01*
X15293515Y-10548270D02*
X15283991Y-10529222D01*
X15283991Y-10529222D02*
X15274468Y-10519698D01*
X15274468Y-10519698D02*
X15255420Y-10510174D01*
X15255420Y-10510174D02*
X15217325Y-10510174D01*
X15217325Y-10510174D02*
X15198277Y-10519698D01*
X15198277Y-10519698D02*
X15188753Y-10529222D01*
X15188753Y-10529222D02*
X15179229Y-10548270D01*
X15531610Y-10633984D02*
X15531610Y-10433984D01*
X15617325Y-10633984D02*
X15617325Y-10529222D01*
X15617325Y-10529222D02*
X15607801Y-10510174D01*
X15607801Y-10510174D02*
X15588753Y-10500650D01*
X15588753Y-10500650D02*
X15560182Y-10500650D01*
X15560182Y-10500650D02*
X15541134Y-10510174D01*
X15541134Y-10510174D02*
X15531610Y-10519698D01*
X15741134Y-10633984D02*
X15722087Y-10624460D01*
X15722087Y-10624460D02*
X15712563Y-10614936D01*
X15712563Y-10614936D02*
X15703039Y-10595889D01*
X15703039Y-10595889D02*
X15703039Y-10538746D01*
X15703039Y-10538746D02*
X15712563Y-10519698D01*
X15712563Y-10519698D02*
X15722087Y-10510174D01*
X15722087Y-10510174D02*
X15741134Y-10500650D01*
X15741134Y-10500650D02*
X15769706Y-10500650D01*
X15769706Y-10500650D02*
X15788753Y-10510174D01*
X15788753Y-10510174D02*
X15798277Y-10519698D01*
X15798277Y-10519698D02*
X15807801Y-10538746D01*
X15807801Y-10538746D02*
X15807801Y-10595889D01*
X15807801Y-10595889D02*
X15798277Y-10614936D01*
X15798277Y-10614936D02*
X15788753Y-10624460D01*
X15788753Y-10624460D02*
X15769706Y-10633984D01*
X15769706Y-10633984D02*
X15741134Y-10633984D01*
X15922087Y-10633984D02*
X15903039Y-10624460D01*
X15903039Y-10624460D02*
X15893515Y-10605412D01*
X15893515Y-10605412D02*
X15893515Y-10433984D01*
X16074468Y-10624460D02*
X16055420Y-10633984D01*
X16055420Y-10633984D02*
X16017325Y-10633984D01*
X16017325Y-10633984D02*
X15998277Y-10624460D01*
X15998277Y-10624460D02*
X15988753Y-10605412D01*
X15988753Y-10605412D02*
X15988753Y-10529222D01*
X15988753Y-10529222D02*
X15998277Y-10510174D01*
X15998277Y-10510174D02*
X16017325Y-10500650D01*
X16017325Y-10500650D02*
X16055420Y-10500650D01*
X16055420Y-10500650D02*
X16074468Y-10510174D01*
X16074468Y-10510174D02*
X16083991Y-10529222D01*
X16083991Y-10529222D02*
X16083991Y-10548270D01*
X16083991Y-10548270D02*
X15988753Y-10567317D01*
X16160182Y-10624460D02*
X16179230Y-10633984D01*
X16179230Y-10633984D02*
X16217325Y-10633984D01*
X16217325Y-10633984D02*
X16236372Y-10624460D01*
X16236372Y-10624460D02*
X16245896Y-10605412D01*
X16245896Y-10605412D02*
X16245896Y-10595889D01*
X16245896Y-10595889D02*
X16236372Y-10576841D01*
X16236372Y-10576841D02*
X16217325Y-10567317D01*
X16217325Y-10567317D02*
X16188753Y-10567317D01*
X16188753Y-10567317D02*
X16169706Y-10557793D01*
X16169706Y-10557793D02*
X16160182Y-10538746D01*
X16160182Y-10538746D02*
X16160182Y-10529222D01*
X16160182Y-10529222D02*
X16169706Y-10510174D01*
X16169706Y-10510174D02*
X16188753Y-10500650D01*
X16188753Y-10500650D02*
X16217325Y-10500650D01*
X16217325Y-10500650D02*
X16236372Y-10510174D01*
X16312563Y-10710174D02*
X16322087Y-10700650D01*
X16322087Y-10700650D02*
X16341134Y-10672079D01*
X16341134Y-10672079D02*
X16350658Y-10653031D01*
X16350658Y-10653031D02*
X16360182Y-10624460D01*
X16360182Y-10624460D02*
X16369706Y-10576841D01*
X16369706Y-10576841D02*
X16369706Y-10538746D01*
X16369706Y-10538746D02*
X16360182Y-10491127D01*
X16360182Y-10491127D02*
X16350658Y-10462555D01*
X16350658Y-10462555D02*
X16341134Y-10443508D01*
X16341134Y-10443508D02*
X16322087Y-10414936D01*
X16322087Y-10414936D02*
X16312563Y-10405412D01*
D12*
X11537500Y-10806500D02*
G75*
G02*
X11437500Y-10806500I-50000J0D01*
G01*
X11437500Y-10806500D02*
G75*
G02*
X11537500Y-10806500I50000J0D01*
G01*
D11*
X11903039Y-10897984D02*
X11788753Y-10897984D01*
X11845896Y-10897984D02*
X11845896Y-10697984D01*
X11845896Y-10697984D02*
X11826848Y-10726555D01*
X11826848Y-10726555D02*
X11807801Y-10745603D01*
X11807801Y-10745603D02*
X11788753Y-10755127D01*
X11988753Y-10878936D02*
X11998277Y-10888460D01*
X11998277Y-10888460D02*
X11988753Y-10897984D01*
X11988753Y-10897984D02*
X11979229Y-10888460D01*
X11979229Y-10888460D02*
X11988753Y-10878936D01*
X11988753Y-10878936D02*
X11988753Y-10897984D01*
X12122086Y-10697984D02*
X12141134Y-10697984D01*
X12141134Y-10697984D02*
X12160182Y-10707508D01*
X12160182Y-10707508D02*
X12169705Y-10717031D01*
X12169705Y-10717031D02*
X12179229Y-10736079D01*
X12179229Y-10736079D02*
X12188753Y-10774174D01*
X12188753Y-10774174D02*
X12188753Y-10821793D01*
X12188753Y-10821793D02*
X12179229Y-10859889D01*
X12179229Y-10859889D02*
X12169705Y-10878936D01*
X12169705Y-10878936D02*
X12160182Y-10888460D01*
X12160182Y-10888460D02*
X12141134Y-10897984D01*
X12141134Y-10897984D02*
X12122086Y-10897984D01*
X12122086Y-10897984D02*
X12103039Y-10888460D01*
X12103039Y-10888460D02*
X12093515Y-10878936D01*
X12093515Y-10878936D02*
X12083991Y-10859889D01*
X12083991Y-10859889D02*
X12074467Y-10821793D01*
X12074467Y-10821793D02*
X12074467Y-10774174D01*
X12074467Y-10774174D02*
X12083991Y-10736079D01*
X12083991Y-10736079D02*
X12093515Y-10717031D01*
X12093515Y-10717031D02*
X12103039Y-10707508D01*
X12103039Y-10707508D02*
X12122086Y-10697984D01*
X12312562Y-10697984D02*
X12331610Y-10697984D01*
X12331610Y-10697984D02*
X12350658Y-10707508D01*
X12350658Y-10707508D02*
X12360182Y-10717031D01*
X12360182Y-10717031D02*
X12369705Y-10736079D01*
X12369705Y-10736079D02*
X12379229Y-10774174D01*
X12379229Y-10774174D02*
X12379229Y-10821793D01*
X12379229Y-10821793D02*
X12369705Y-10859889D01*
X12369705Y-10859889D02*
X12360182Y-10878936D01*
X12360182Y-10878936D02*
X12350658Y-10888460D01*
X12350658Y-10888460D02*
X12331610Y-10897984D01*
X12331610Y-10897984D02*
X12312562Y-10897984D01*
X12312562Y-10897984D02*
X12293515Y-10888460D01*
X12293515Y-10888460D02*
X12283991Y-10878936D01*
X12283991Y-10878936D02*
X12274467Y-10859889D01*
X12274467Y-10859889D02*
X12264943Y-10821793D01*
X12264943Y-10821793D02*
X12264943Y-10774174D01*
X12264943Y-10774174D02*
X12274467Y-10736079D01*
X12274467Y-10736079D02*
X12283991Y-10717031D01*
X12283991Y-10717031D02*
X12293515Y-10707508D01*
X12293515Y-10707508D02*
X12312562Y-10697984D01*
X12503039Y-10697984D02*
X12522086Y-10697984D01*
X12522086Y-10697984D02*
X12541134Y-10707508D01*
X12541134Y-10707508D02*
X12550658Y-10717031D01*
X12550658Y-10717031D02*
X12560182Y-10736079D01*
X12560182Y-10736079D02*
X12569705Y-10774174D01*
X12569705Y-10774174D02*
X12569705Y-10821793D01*
X12569705Y-10821793D02*
X12560182Y-10859889D01*
X12560182Y-10859889D02*
X12550658Y-10878936D01*
X12550658Y-10878936D02*
X12541134Y-10888460D01*
X12541134Y-10888460D02*
X12522086Y-10897984D01*
X12522086Y-10897984D02*
X12503039Y-10897984D01*
X12503039Y-10897984D02*
X12483991Y-10888460D01*
X12483991Y-10888460D02*
X12474467Y-10878936D01*
X12474467Y-10878936D02*
X12464943Y-10859889D01*
X12464943Y-10859889D02*
X12455420Y-10821793D01*
X12455420Y-10821793D02*
X12455420Y-10774174D01*
X12455420Y-10774174D02*
X12464943Y-10736079D01*
X12464943Y-10736079D02*
X12474467Y-10717031D01*
X12474467Y-10717031D02*
X12483991Y-10707508D01*
X12483991Y-10707508D02*
X12503039Y-10697984D01*
X12655420Y-10897984D02*
X12655420Y-10764650D01*
X12655420Y-10783698D02*
X12664943Y-10774174D01*
X12664943Y-10774174D02*
X12683991Y-10764650D01*
X12683991Y-10764650D02*
X12712563Y-10764650D01*
X12712563Y-10764650D02*
X12731610Y-10774174D01*
X12731610Y-10774174D02*
X12741134Y-10793222D01*
X12741134Y-10793222D02*
X12741134Y-10897984D01*
X12741134Y-10793222D02*
X12750658Y-10774174D01*
X12750658Y-10774174D02*
X12769705Y-10764650D01*
X12769705Y-10764650D02*
X12798277Y-10764650D01*
X12798277Y-10764650D02*
X12817324Y-10774174D01*
X12817324Y-10774174D02*
X12826848Y-10793222D01*
X12826848Y-10793222D02*
X12826848Y-10897984D01*
X12922086Y-10897984D02*
X12922086Y-10764650D01*
X12922086Y-10783698D02*
X12931610Y-10774174D01*
X12931610Y-10774174D02*
X12950658Y-10764650D01*
X12950658Y-10764650D02*
X12979229Y-10764650D01*
X12979229Y-10764650D02*
X12998277Y-10774174D01*
X12998277Y-10774174D02*
X13007801Y-10793222D01*
X13007801Y-10793222D02*
X13007801Y-10897984D01*
X13007801Y-10793222D02*
X13017324Y-10774174D01*
X13017324Y-10774174D02*
X13036372Y-10764650D01*
X13036372Y-10764650D02*
X13064943Y-10764650D01*
X13064943Y-10764650D02*
X13083991Y-10774174D01*
X13083991Y-10774174D02*
X13093515Y-10793222D01*
X13093515Y-10793222D02*
X13093515Y-10897984D01*
X13483991Y-10688460D02*
X13312563Y-10945603D01*
X13741134Y-10697984D02*
X13760182Y-10697984D01*
X13760182Y-10697984D02*
X13779229Y-10707508D01*
X13779229Y-10707508D02*
X13788753Y-10717031D01*
X13788753Y-10717031D02*
X13798277Y-10736079D01*
X13798277Y-10736079D02*
X13807801Y-10774174D01*
X13807801Y-10774174D02*
X13807801Y-10821793D01*
X13807801Y-10821793D02*
X13798277Y-10859889D01*
X13798277Y-10859889D02*
X13788753Y-10878936D01*
X13788753Y-10878936D02*
X13779229Y-10888460D01*
X13779229Y-10888460D02*
X13760182Y-10897984D01*
X13760182Y-10897984D02*
X13741134Y-10897984D01*
X13741134Y-10897984D02*
X13722086Y-10888460D01*
X13722086Y-10888460D02*
X13712563Y-10878936D01*
X13712563Y-10878936D02*
X13703039Y-10859889D01*
X13703039Y-10859889D02*
X13693515Y-10821793D01*
X13693515Y-10821793D02*
X13693515Y-10774174D01*
X13693515Y-10774174D02*
X13703039Y-10736079D01*
X13703039Y-10736079D02*
X13712563Y-10717031D01*
X13712563Y-10717031D02*
X13722086Y-10707508D01*
X13722086Y-10707508D02*
X13741134Y-10697984D01*
X13893515Y-10878936D02*
X13903039Y-10888460D01*
X13903039Y-10888460D02*
X13893515Y-10897984D01*
X13893515Y-10897984D02*
X13883991Y-10888460D01*
X13883991Y-10888460D02*
X13893515Y-10878936D01*
X13893515Y-10878936D02*
X13893515Y-10897984D01*
X14026848Y-10697984D02*
X14045896Y-10697984D01*
X14045896Y-10697984D02*
X14064944Y-10707508D01*
X14064944Y-10707508D02*
X14074467Y-10717031D01*
X14074467Y-10717031D02*
X14083991Y-10736079D01*
X14083991Y-10736079D02*
X14093515Y-10774174D01*
X14093515Y-10774174D02*
X14093515Y-10821793D01*
X14093515Y-10821793D02*
X14083991Y-10859889D01*
X14083991Y-10859889D02*
X14074467Y-10878936D01*
X14074467Y-10878936D02*
X14064944Y-10888460D01*
X14064944Y-10888460D02*
X14045896Y-10897984D01*
X14045896Y-10897984D02*
X14026848Y-10897984D01*
X14026848Y-10897984D02*
X14007801Y-10888460D01*
X14007801Y-10888460D02*
X13998277Y-10878936D01*
X13998277Y-10878936D02*
X13988753Y-10859889D01*
X13988753Y-10859889D02*
X13979229Y-10821793D01*
X13979229Y-10821793D02*
X13979229Y-10774174D01*
X13979229Y-10774174D02*
X13988753Y-10736079D01*
X13988753Y-10736079D02*
X13998277Y-10717031D01*
X13998277Y-10717031D02*
X14007801Y-10707508D01*
X14007801Y-10707508D02*
X14026848Y-10697984D01*
X14160182Y-10697984D02*
X14283991Y-10697984D01*
X14283991Y-10697984D02*
X14217325Y-10774174D01*
X14217325Y-10774174D02*
X14245896Y-10774174D01*
X14245896Y-10774174D02*
X14264944Y-10783698D01*
X14264944Y-10783698D02*
X14274467Y-10793222D01*
X14274467Y-10793222D02*
X14283991Y-10812270D01*
X14283991Y-10812270D02*
X14283991Y-10859889D01*
X14283991Y-10859889D02*
X14274467Y-10878936D01*
X14274467Y-10878936D02*
X14264944Y-10888460D01*
X14264944Y-10888460D02*
X14245896Y-10897984D01*
X14245896Y-10897984D02*
X14188753Y-10897984D01*
X14188753Y-10897984D02*
X14169706Y-10888460D01*
X14169706Y-10888460D02*
X14160182Y-10878936D01*
X14379229Y-10897984D02*
X14417325Y-10897984D01*
X14417325Y-10897984D02*
X14436372Y-10888460D01*
X14436372Y-10888460D02*
X14445896Y-10878936D01*
X14445896Y-10878936D02*
X14464944Y-10850365D01*
X14464944Y-10850365D02*
X14474467Y-10812270D01*
X14474467Y-10812270D02*
X14474467Y-10736079D01*
X14474467Y-10736079D02*
X14464944Y-10717031D01*
X14464944Y-10717031D02*
X14455420Y-10707508D01*
X14455420Y-10707508D02*
X14436372Y-10697984D01*
X14436372Y-10697984D02*
X14398277Y-10697984D01*
X14398277Y-10697984D02*
X14379229Y-10707508D01*
X14379229Y-10707508D02*
X14369706Y-10717031D01*
X14369706Y-10717031D02*
X14360182Y-10736079D01*
X14360182Y-10736079D02*
X14360182Y-10783698D01*
X14360182Y-10783698D02*
X14369706Y-10802746D01*
X14369706Y-10802746D02*
X14379229Y-10812270D01*
X14379229Y-10812270D02*
X14398277Y-10821793D01*
X14398277Y-10821793D02*
X14436372Y-10821793D01*
X14436372Y-10821793D02*
X14455420Y-10812270D01*
X14455420Y-10812270D02*
X14464944Y-10802746D01*
X14464944Y-10802746D02*
X14474467Y-10783698D01*
X14645896Y-10764650D02*
X14645896Y-10897984D01*
X14598277Y-10688460D02*
X14550658Y-10831317D01*
X14550658Y-10831317D02*
X14674467Y-10831317D01*
X14741134Y-10697984D02*
X14741134Y-10736079D01*
X14817325Y-10697984D02*
X14817325Y-10736079D01*
X15112563Y-10974174D02*
X15103039Y-10964650D01*
X15103039Y-10964650D02*
X15083991Y-10936079D01*
X15083991Y-10936079D02*
X15074468Y-10917031D01*
X15074468Y-10917031D02*
X15064944Y-10888460D01*
X15064944Y-10888460D02*
X15055420Y-10840841D01*
X15055420Y-10840841D02*
X15055420Y-10802746D01*
X15055420Y-10802746D02*
X15064944Y-10755127D01*
X15064944Y-10755127D02*
X15074468Y-10726555D01*
X15074468Y-10726555D02*
X15083991Y-10707508D01*
X15083991Y-10707508D02*
X15103039Y-10678936D01*
X15103039Y-10678936D02*
X15112563Y-10669412D01*
X15274468Y-10764650D02*
X15274468Y-10897984D01*
X15226848Y-10688460D02*
X15179229Y-10831317D01*
X15179229Y-10831317D02*
X15303039Y-10831317D01*
X15531610Y-10897984D02*
X15531610Y-10697984D01*
X15617325Y-10897984D02*
X15617325Y-10793222D01*
X15617325Y-10793222D02*
X15607801Y-10774174D01*
X15607801Y-10774174D02*
X15588753Y-10764650D01*
X15588753Y-10764650D02*
X15560182Y-10764650D01*
X15560182Y-10764650D02*
X15541134Y-10774174D01*
X15541134Y-10774174D02*
X15531610Y-10783698D01*
X15741134Y-10897984D02*
X15722087Y-10888460D01*
X15722087Y-10888460D02*
X15712563Y-10878936D01*
X15712563Y-10878936D02*
X15703039Y-10859889D01*
X15703039Y-10859889D02*
X15703039Y-10802746D01*
X15703039Y-10802746D02*
X15712563Y-10783698D01*
X15712563Y-10783698D02*
X15722087Y-10774174D01*
X15722087Y-10774174D02*
X15741134Y-10764650D01*
X15741134Y-10764650D02*
X15769706Y-10764650D01*
X15769706Y-10764650D02*
X15788753Y-10774174D01*
X15788753Y-10774174D02*
X15798277Y-10783698D01*
X15798277Y-10783698D02*
X15807801Y-10802746D01*
X15807801Y-10802746D02*
X15807801Y-10859889D01*
X15807801Y-10859889D02*
X15798277Y-10878936D01*
X15798277Y-10878936D02*
X15788753Y-10888460D01*
X15788753Y-10888460D02*
X15769706Y-10897984D01*
X15769706Y-10897984D02*
X15741134Y-10897984D01*
X15922087Y-10897984D02*
X15903039Y-10888460D01*
X15903039Y-10888460D02*
X15893515Y-10869412D01*
X15893515Y-10869412D02*
X15893515Y-10697984D01*
X16074468Y-10888460D02*
X16055420Y-10897984D01*
X16055420Y-10897984D02*
X16017325Y-10897984D01*
X16017325Y-10897984D02*
X15998277Y-10888460D01*
X15998277Y-10888460D02*
X15988753Y-10869412D01*
X15988753Y-10869412D02*
X15988753Y-10793222D01*
X15988753Y-10793222D02*
X15998277Y-10774174D01*
X15998277Y-10774174D02*
X16017325Y-10764650D01*
X16017325Y-10764650D02*
X16055420Y-10764650D01*
X16055420Y-10764650D02*
X16074468Y-10774174D01*
X16074468Y-10774174D02*
X16083991Y-10793222D01*
X16083991Y-10793222D02*
X16083991Y-10812270D01*
X16083991Y-10812270D02*
X15988753Y-10831317D01*
X16160182Y-10888460D02*
X16179230Y-10897984D01*
X16179230Y-10897984D02*
X16217325Y-10897984D01*
X16217325Y-10897984D02*
X16236372Y-10888460D01*
X16236372Y-10888460D02*
X16245896Y-10869412D01*
X16245896Y-10869412D02*
X16245896Y-10859889D01*
X16245896Y-10859889D02*
X16236372Y-10840841D01*
X16236372Y-10840841D02*
X16217325Y-10831317D01*
X16217325Y-10831317D02*
X16188753Y-10831317D01*
X16188753Y-10831317D02*
X16169706Y-10821793D01*
X16169706Y-10821793D02*
X16160182Y-10802746D01*
X16160182Y-10802746D02*
X16160182Y-10793222D01*
X16160182Y-10793222D02*
X16169706Y-10774174D01*
X16169706Y-10774174D02*
X16188753Y-10764650D01*
X16188753Y-10764650D02*
X16217325Y-10764650D01*
X16217325Y-10764650D02*
X16236372Y-10774174D01*
X16312563Y-10974174D02*
X16322087Y-10964650D01*
X16322087Y-10964650D02*
X16341134Y-10936079D01*
X16341134Y-10936079D02*
X16350658Y-10917031D01*
X16350658Y-10917031D02*
X16360182Y-10888460D01*
X16360182Y-10888460D02*
X16369706Y-10840841D01*
X16369706Y-10840841D02*
X16369706Y-10802746D01*
X16369706Y-10802746D02*
X16360182Y-10755127D01*
X16360182Y-10755127D02*
X16350658Y-10726555D01*
X16350658Y-10726555D02*
X16341134Y-10707508D01*
X16341134Y-10707508D02*
X16322087Y-10678936D01*
X16322087Y-10678936D02*
X16312563Y-10669412D01*
M02*
