%TF.GenerationSoftware,KiCad,Pcbnew,8.0.6*%
%TF.CreationDate,2024-10-30T20:06:30-05:00*%
%TF.ProjectId,PiLEDLights,50694c45-444c-4696-9768-74732e6b6963,rev?*%
%TF.SameCoordinates,Original*%
%TF.FileFunction,Legend,Bot*%
%TF.FilePolarity,Positive*%
%FSLAX46Y46*%
G04 Gerber Fmt 4.6, Leading zero omitted, Abs format (unit mm)*
G04 Created by KiCad (PCBNEW 8.0.6) date 2024-10-30 20:06:30*
%MOMM*%
%LPD*%
G01*
G04 APERTURE LIST*
%ADD10C,0.100000*%
%ADD11C,0.120000*%
G04 APERTURE END LIST*
D10*
X127173647Y-94634990D02*
X127249837Y-94596895D01*
X127249837Y-94596895D02*
X127364123Y-94596895D01*
X127364123Y-94596895D02*
X127478409Y-94634990D01*
X127478409Y-94634990D02*
X127554599Y-94711180D01*
X127554599Y-94711180D02*
X127592694Y-94787371D01*
X127592694Y-94787371D02*
X127630790Y-94939752D01*
X127630790Y-94939752D02*
X127630790Y-95054038D01*
X127630790Y-95054038D02*
X127592694Y-95206419D01*
X127592694Y-95206419D02*
X127554599Y-95282609D01*
X127554599Y-95282609D02*
X127478409Y-95358800D01*
X127478409Y-95358800D02*
X127364123Y-95396895D01*
X127364123Y-95396895D02*
X127287932Y-95396895D01*
X127287932Y-95396895D02*
X127173647Y-95358800D01*
X127173647Y-95358800D02*
X127135551Y-95320704D01*
X127135551Y-95320704D02*
X127135551Y-95054038D01*
X127135551Y-95054038D02*
X127287932Y-95054038D01*
X130574687Y-94634990D02*
X130650877Y-94596895D01*
X130650877Y-94596895D02*
X130765163Y-94596895D01*
X130765163Y-94596895D02*
X130879449Y-94634990D01*
X130879449Y-94634990D02*
X130955639Y-94711180D01*
X130955639Y-94711180D02*
X130993734Y-94787371D01*
X130993734Y-94787371D02*
X131031830Y-94939752D01*
X131031830Y-94939752D02*
X131031830Y-95054038D01*
X131031830Y-95054038D02*
X130993734Y-95206419D01*
X130993734Y-95206419D02*
X130955639Y-95282609D01*
X130955639Y-95282609D02*
X130879449Y-95358800D01*
X130879449Y-95358800D02*
X130765163Y-95396895D01*
X130765163Y-95396895D02*
X130688972Y-95396895D01*
X130688972Y-95396895D02*
X130574687Y-95358800D01*
X130574687Y-95358800D02*
X130536591Y-95320704D01*
X130536591Y-95320704D02*
X130536591Y-95054038D01*
X130536591Y-95054038D02*
X130688972Y-95054038D01*
X130193734Y-95396895D02*
X130193734Y-94596895D01*
X130193734Y-94596895D02*
X129736591Y-95396895D01*
X129736591Y-95396895D02*
X129736591Y-94596895D01*
X129355639Y-95396895D02*
X129355639Y-94596895D01*
X129355639Y-94596895D02*
X129165163Y-94596895D01*
X129165163Y-94596895D02*
X129050877Y-94634990D01*
X129050877Y-94634990D02*
X128974687Y-94711180D01*
X128974687Y-94711180D02*
X128936592Y-94787371D01*
X128936592Y-94787371D02*
X128898496Y-94939752D01*
X128898496Y-94939752D02*
X128898496Y-95054038D01*
X128898496Y-95054038D02*
X128936592Y-95206419D01*
X128936592Y-95206419D02*
X128974687Y-95282609D01*
X128974687Y-95282609D02*
X129050877Y-95358800D01*
X129050877Y-95358800D02*
X129165163Y-95396895D01*
X129165163Y-95396895D02*
X129355639Y-95396895D01*
X124841353Y-95015942D02*
X124841353Y-95396895D01*
X125108020Y-94596895D02*
X124841353Y-95015942D01*
X124841353Y-95015942D02*
X124574687Y-94596895D01*
X122036591Y-95396895D02*
X122303258Y-95015942D01*
X122493734Y-95396895D02*
X122493734Y-94596895D01*
X122493734Y-94596895D02*
X122188972Y-94596895D01*
X122188972Y-94596895D02*
X122112782Y-94634990D01*
X122112782Y-94634990D02*
X122074687Y-94673085D01*
X122074687Y-94673085D02*
X122036591Y-94749276D01*
X122036591Y-94749276D02*
X122036591Y-94863561D01*
X122036591Y-94863561D02*
X122074687Y-94939752D01*
X122074687Y-94939752D02*
X122112782Y-94977847D01*
X122112782Y-94977847D02*
X122188972Y-95015942D01*
X122188972Y-95015942D02*
X122493734Y-95015942D01*
D11*
%TO.C,R2*%
X120265000Y-91860436D02*
X120265000Y-92314564D01*
X121735000Y-91860436D02*
X121735000Y-92314564D01*
%TO.C,R1*%
X126265000Y-91860436D02*
X126265000Y-92314564D01*
X127735000Y-91860436D02*
X127735000Y-92314564D01*
%TO.C,J1*%
X121050000Y-95570000D02*
X121050000Y-98230000D01*
X121050000Y-95570000D02*
X128730000Y-95570000D01*
X121050000Y-98230000D02*
X128730000Y-98230000D01*
X128730000Y-95570000D02*
X128730000Y-98230000D01*
X131330000Y-96900000D02*
X131330000Y-98230000D01*
X131330000Y-98230000D02*
X130000000Y-98230000D01*
%TO.C,R3*%
X117772936Y-96265000D02*
X118227064Y-96265000D01*
X117772936Y-97735000D02*
X118227064Y-97735000D01*
%TD*%
M02*
