%TF.GenerationSoftware,KiCad,Pcbnew,8.0.6*%
%TF.CreationDate,2024-10-30T20:06:29-05:00*%
%TF.ProjectId,PiLEDLights,50694c45-444c-4696-9768-74732e6b6963,rev?*%
%TF.SameCoordinates,Original*%
%TF.FileFunction,Copper,L1,Top*%
%TF.FilePolarity,Positive*%
%FSLAX46Y46*%
G04 Gerber Fmt 4.6, Leading zero omitted, Abs format (unit mm)*
G04 Created by KiCad (PCBNEW 8.0.6) date 2024-10-30 20:06:29*
%MOMM*%
%LPD*%
G01*
G04 APERTURE LIST*
%TA.AperFunction,ComponentPad*%
%ADD10R,1.800000X1.800000*%
%TD*%
%TA.AperFunction,ComponentPad*%
%ADD11C,1.800000*%
%TD*%
%TA.AperFunction,ComponentPad*%
%ADD12R,1.700000X1.700000*%
%TD*%
%TA.AperFunction,ComponentPad*%
%ADD13O,1.700000X1.700000*%
%TD*%
G04 APERTURE END LIST*
D10*
%TO.P,Yellow,1,K*%
%TO.N,Net-(D1-K)*%
X124000000Y-93540000D03*
D11*
%TO.P,Yellow,2,A*%
%TO.N,Net-(D2-A)*%
X124000000Y-91000000D03*
%TD*%
D10*
%TO.P,Green,1,K*%
%TO.N,Net-(D1-K)*%
X130000000Y-93540000D03*
D11*
%TO.P,Green,2,A*%
%TO.N,Net-(D1-A)*%
X130000000Y-91000000D03*
%TD*%
D10*
%TO.P,Red,1,K*%
%TO.N,Net-(D1-K)*%
X118000000Y-93540000D03*
D11*
%TO.P,Red,2,A*%
%TO.N,Net-(D3-A)*%
X118000000Y-91000000D03*
%TD*%
D12*
%TO.P,J1,1,Pin_1*%
%TO.N,Net-(D1-K)*%
X130000000Y-96900000D03*
D13*
%TO.P,J1,2,Pin_2*%
%TO.N,Net-(J1-Pin_2)*%
X127460000Y-96900000D03*
%TO.P,J1,3,Pin_3*%
%TO.N,Net-(J1-Pin_3)*%
X124920000Y-96900000D03*
%TO.P,J1,4,Pin_4*%
%TO.N,Net-(J1-Pin_4)*%
X122380000Y-96900000D03*
%TD*%
%TA.AperFunction,Conductor*%
%TO.N,Net-(D1-K)*%
G36*
X117319524Y-89920185D02*
G01*
X117365279Y-89972989D01*
X117375223Y-90042147D01*
X117346198Y-90105703D01*
X117336023Y-90116137D01*
X117183237Y-90255418D01*
X117060327Y-90418178D01*
X116969422Y-90600739D01*
X116969417Y-90600752D01*
X116913602Y-90796917D01*
X116894785Y-90999999D01*
X116894785Y-91000000D01*
X116913602Y-91203082D01*
X116969417Y-91399247D01*
X116969422Y-91399260D01*
X117060327Y-91581821D01*
X117183237Y-91744581D01*
X117333958Y-91881980D01*
X117333960Y-91881982D01*
X117380136Y-91910573D01*
X117426772Y-91962601D01*
X117437876Y-92031583D01*
X117409923Y-92095617D01*
X117351788Y-92134373D01*
X117314859Y-92140000D01*
X117052155Y-92140000D01*
X116992627Y-92146401D01*
X116992620Y-92146403D01*
X116857913Y-92196645D01*
X116857906Y-92196649D01*
X116742812Y-92282809D01*
X116742809Y-92282812D01*
X116656649Y-92397906D01*
X116656645Y-92397913D01*
X116606403Y-92532620D01*
X116606401Y-92532627D01*
X116600000Y-92592155D01*
X116600000Y-93290000D01*
X117624722Y-93290000D01*
X117580667Y-93366306D01*
X117550000Y-93480756D01*
X117550000Y-93599244D01*
X117580667Y-93713694D01*
X117624722Y-93790000D01*
X116600000Y-93790000D01*
X116600000Y-94487844D01*
X116606401Y-94547372D01*
X116606403Y-94547379D01*
X116656645Y-94682086D01*
X116656649Y-94682093D01*
X116742809Y-94797187D01*
X116742812Y-94797190D01*
X116857906Y-94883350D01*
X116857913Y-94883354D01*
X116992620Y-94933596D01*
X116992627Y-94933598D01*
X117052155Y-94939999D01*
X117052172Y-94940000D01*
X117750000Y-94940000D01*
X117750000Y-93915277D01*
X117826306Y-93959333D01*
X117940756Y-93990000D01*
X118059244Y-93990000D01*
X118173694Y-93959333D01*
X118250000Y-93915277D01*
X118250000Y-94940000D01*
X118947828Y-94940000D01*
X118947844Y-94939999D01*
X119007372Y-94933598D01*
X119007379Y-94933596D01*
X119142086Y-94883354D01*
X119142093Y-94883350D01*
X119257187Y-94797190D01*
X119257190Y-94797187D01*
X119343350Y-94682093D01*
X119343354Y-94682086D01*
X119393596Y-94547379D01*
X119393598Y-94547372D01*
X119399999Y-94487844D01*
X119400000Y-94487827D01*
X119400000Y-93790000D01*
X118375278Y-93790000D01*
X118419333Y-93713694D01*
X118450000Y-93599244D01*
X118450000Y-93480756D01*
X118419333Y-93366306D01*
X118375278Y-93290000D01*
X119400000Y-93290000D01*
X119400000Y-92592172D01*
X119399999Y-92592155D01*
X119393598Y-92532627D01*
X119393596Y-92532620D01*
X119343354Y-92397913D01*
X119343350Y-92397906D01*
X119257190Y-92282812D01*
X119257187Y-92282809D01*
X119142093Y-92196649D01*
X119142086Y-92196645D01*
X119007379Y-92146403D01*
X119007372Y-92146401D01*
X118947844Y-92140000D01*
X118685141Y-92140000D01*
X118618102Y-92120315D01*
X118572347Y-92067511D01*
X118562403Y-91998353D01*
X118591428Y-91934797D01*
X118619864Y-91910573D01*
X118666039Y-91881982D01*
X118666038Y-91881982D01*
X118666041Y-91881981D01*
X118816764Y-91744579D01*
X118939673Y-91581821D01*
X119030582Y-91399250D01*
X119086397Y-91203083D01*
X119105215Y-91000000D01*
X119086397Y-90796917D01*
X119030582Y-90600750D01*
X118939673Y-90418179D01*
X118816764Y-90255421D01*
X118816762Y-90255418D01*
X118663977Y-90116137D01*
X118627695Y-90056426D01*
X118629456Y-89986578D01*
X118668699Y-89928771D01*
X118732966Y-89901356D01*
X118747515Y-89900500D01*
X123252485Y-89900500D01*
X123319524Y-89920185D01*
X123365279Y-89972989D01*
X123375223Y-90042147D01*
X123346198Y-90105703D01*
X123336023Y-90116137D01*
X123183237Y-90255418D01*
X123060327Y-90418178D01*
X122969422Y-90600739D01*
X122969417Y-90600752D01*
X122913602Y-90796917D01*
X122894785Y-90999999D01*
X122894785Y-91000000D01*
X122913602Y-91203082D01*
X122969417Y-91399247D01*
X122969422Y-91399260D01*
X123060327Y-91581821D01*
X123183237Y-91744581D01*
X123333958Y-91881980D01*
X123333960Y-91881982D01*
X123380136Y-91910573D01*
X123426772Y-91962601D01*
X123437876Y-92031583D01*
X123409923Y-92095617D01*
X123351788Y-92134373D01*
X123314859Y-92140000D01*
X123052155Y-92140000D01*
X122992627Y-92146401D01*
X122992620Y-92146403D01*
X122857913Y-92196645D01*
X122857906Y-92196649D01*
X122742812Y-92282809D01*
X122742809Y-92282812D01*
X122656649Y-92397906D01*
X122656645Y-92397913D01*
X122606403Y-92532620D01*
X122606401Y-92532627D01*
X122600000Y-92592155D01*
X122600000Y-93290000D01*
X123624722Y-93290000D01*
X123580667Y-93366306D01*
X123550000Y-93480756D01*
X123550000Y-93599244D01*
X123580667Y-93713694D01*
X123624722Y-93790000D01*
X122600000Y-93790000D01*
X122600000Y-94487844D01*
X122606401Y-94547372D01*
X122606403Y-94547379D01*
X122656645Y-94682086D01*
X122656649Y-94682093D01*
X122742809Y-94797187D01*
X122742812Y-94797190D01*
X122857906Y-94883350D01*
X122857913Y-94883354D01*
X122992620Y-94933596D01*
X122992627Y-94933598D01*
X123052155Y-94939999D01*
X123052172Y-94940000D01*
X123750000Y-94940000D01*
X123750000Y-93915277D01*
X123826306Y-93959333D01*
X123940756Y-93990000D01*
X124059244Y-93990000D01*
X124173694Y-93959333D01*
X124250000Y-93915277D01*
X124250000Y-94940000D01*
X124947828Y-94940000D01*
X124947844Y-94939999D01*
X125007372Y-94933598D01*
X125007379Y-94933596D01*
X125142086Y-94883354D01*
X125142093Y-94883350D01*
X125257187Y-94797190D01*
X125257190Y-94797187D01*
X125343350Y-94682093D01*
X125343354Y-94682086D01*
X125393596Y-94547379D01*
X125393598Y-94547372D01*
X125399999Y-94487844D01*
X125400000Y-94487827D01*
X125400000Y-93790000D01*
X124375278Y-93790000D01*
X124419333Y-93713694D01*
X124450000Y-93599244D01*
X124450000Y-93480756D01*
X124419333Y-93366306D01*
X124375278Y-93290000D01*
X125400000Y-93290000D01*
X125400000Y-92592172D01*
X125399999Y-92592155D01*
X125393598Y-92532627D01*
X125393596Y-92532620D01*
X125343354Y-92397913D01*
X125343350Y-92397906D01*
X125257190Y-92282812D01*
X125257187Y-92282809D01*
X125142093Y-92196649D01*
X125142086Y-92196645D01*
X125007379Y-92146403D01*
X125007372Y-92146401D01*
X124947844Y-92140000D01*
X124685141Y-92140000D01*
X124618102Y-92120315D01*
X124572347Y-92067511D01*
X124562403Y-91998353D01*
X124591428Y-91934797D01*
X124619864Y-91910573D01*
X124666039Y-91881982D01*
X124666038Y-91881982D01*
X124666041Y-91881981D01*
X124816764Y-91744579D01*
X124939673Y-91581821D01*
X125030582Y-91399250D01*
X125086397Y-91203083D01*
X125105215Y-91000000D01*
X125086397Y-90796917D01*
X125030582Y-90600750D01*
X124939673Y-90418179D01*
X124816764Y-90255421D01*
X124816762Y-90255418D01*
X124663977Y-90116137D01*
X124627695Y-90056426D01*
X124629456Y-89986578D01*
X124668699Y-89928771D01*
X124732966Y-89901356D01*
X124747515Y-89900500D01*
X129252485Y-89900500D01*
X129319524Y-89920185D01*
X129365279Y-89972989D01*
X129375223Y-90042147D01*
X129346198Y-90105703D01*
X129336023Y-90116137D01*
X129183237Y-90255418D01*
X129060327Y-90418178D01*
X128969422Y-90600739D01*
X128969417Y-90600752D01*
X128913602Y-90796917D01*
X128894785Y-90999999D01*
X128894785Y-91000000D01*
X128913602Y-91203082D01*
X128969417Y-91399247D01*
X128969422Y-91399260D01*
X129060327Y-91581821D01*
X129183237Y-91744581D01*
X129333958Y-91881980D01*
X129333960Y-91881982D01*
X129380136Y-91910573D01*
X129426772Y-91962601D01*
X129437876Y-92031583D01*
X129409923Y-92095617D01*
X129351788Y-92134373D01*
X129314859Y-92140000D01*
X129052155Y-92140000D01*
X128992627Y-92146401D01*
X128992620Y-92146403D01*
X128857913Y-92196645D01*
X128857906Y-92196649D01*
X128742812Y-92282809D01*
X128742809Y-92282812D01*
X128656649Y-92397906D01*
X128656645Y-92397913D01*
X128606403Y-92532620D01*
X128606401Y-92532627D01*
X128600000Y-92592155D01*
X128600000Y-93290000D01*
X129624722Y-93290000D01*
X129580667Y-93366306D01*
X129550000Y-93480756D01*
X129550000Y-93599244D01*
X129580667Y-93713694D01*
X129624722Y-93790000D01*
X128600000Y-93790000D01*
X128600000Y-94487844D01*
X128606401Y-94547372D01*
X128606403Y-94547379D01*
X128656645Y-94682086D01*
X128656649Y-94682093D01*
X128742809Y-94797187D01*
X128742812Y-94797190D01*
X128857906Y-94883350D01*
X128857913Y-94883354D01*
X128992620Y-94933596D01*
X128992627Y-94933598D01*
X129052155Y-94939999D01*
X129052172Y-94940000D01*
X129750000Y-94940000D01*
X129750000Y-93915277D01*
X129826306Y-93959333D01*
X129940756Y-93990000D01*
X130059244Y-93990000D01*
X130173694Y-93959333D01*
X130250000Y-93915277D01*
X130250000Y-94940000D01*
X130947828Y-94940000D01*
X130947844Y-94939999D01*
X131007372Y-94933598D01*
X131007379Y-94933596D01*
X131142086Y-94883354D01*
X131142093Y-94883350D01*
X131257187Y-94797190D01*
X131257190Y-94797187D01*
X131343350Y-94682093D01*
X131343354Y-94682086D01*
X131393596Y-94547379D01*
X131393598Y-94547372D01*
X131399999Y-94487844D01*
X131400000Y-94487827D01*
X131400000Y-93790000D01*
X130375278Y-93790000D01*
X130419333Y-93713694D01*
X130450000Y-93599244D01*
X130450000Y-93480756D01*
X130419333Y-93366306D01*
X130375278Y-93290000D01*
X131400000Y-93290000D01*
X131400000Y-92592172D01*
X131399999Y-92592155D01*
X131393598Y-92532627D01*
X131393596Y-92532620D01*
X131343354Y-92397913D01*
X131343350Y-92397906D01*
X131257190Y-92282812D01*
X131257187Y-92282809D01*
X131142093Y-92196649D01*
X131142086Y-92196645D01*
X131007379Y-92146403D01*
X131007372Y-92146401D01*
X130947844Y-92140000D01*
X130685141Y-92140000D01*
X130618102Y-92120315D01*
X130572347Y-92067511D01*
X130562403Y-91998353D01*
X130591428Y-91934797D01*
X130619864Y-91910573D01*
X130666039Y-91881982D01*
X130666038Y-91881982D01*
X130666041Y-91881981D01*
X130816764Y-91744579D01*
X130939673Y-91581821D01*
X131030582Y-91399250D01*
X131086397Y-91203083D01*
X131105215Y-91000000D01*
X131086397Y-90796917D01*
X131030582Y-90600750D01*
X130939673Y-90418179D01*
X130816764Y-90255421D01*
X130816762Y-90255418D01*
X130663977Y-90116137D01*
X130627695Y-90056426D01*
X130629456Y-89986578D01*
X130668699Y-89928771D01*
X130732966Y-89901356D01*
X130747515Y-89900500D01*
X132075500Y-89900500D01*
X132142539Y-89920185D01*
X132188294Y-89972989D01*
X132199500Y-90024500D01*
X132199500Y-98375500D01*
X132179815Y-98442539D01*
X132127011Y-98488294D01*
X132075500Y-98499500D01*
X116024500Y-98499500D01*
X115957461Y-98479815D01*
X115911706Y-98427011D01*
X115900500Y-98375500D01*
X115900500Y-96900000D01*
X121324417Y-96900000D01*
X121344699Y-97105932D01*
X121344700Y-97105934D01*
X121404768Y-97303954D01*
X121502315Y-97486450D01*
X121502317Y-97486452D01*
X121633589Y-97646410D01*
X121730209Y-97725702D01*
X121793550Y-97777685D01*
X121976046Y-97875232D01*
X122174066Y-97935300D01*
X122174065Y-97935300D01*
X122192529Y-97937118D01*
X122380000Y-97955583D01*
X122585934Y-97935300D01*
X122783954Y-97875232D01*
X122966450Y-97777685D01*
X123126410Y-97646410D01*
X123257685Y-97486450D01*
X123355232Y-97303954D01*
X123415300Y-97105934D01*
X123435583Y-96900000D01*
X123864417Y-96900000D01*
X123884699Y-97105932D01*
X123884700Y-97105934D01*
X123944768Y-97303954D01*
X124042315Y-97486450D01*
X124042317Y-97486452D01*
X124173589Y-97646410D01*
X124270209Y-97725702D01*
X124333550Y-97777685D01*
X124516046Y-97875232D01*
X124714066Y-97935300D01*
X124714065Y-97935300D01*
X124732529Y-97937118D01*
X124920000Y-97955583D01*
X125125934Y-97935300D01*
X125323954Y-97875232D01*
X125506450Y-97777685D01*
X125666410Y-97646410D01*
X125797685Y-97486450D01*
X125895232Y-97303954D01*
X125955300Y-97105934D01*
X125975583Y-96900000D01*
X126404417Y-96900000D01*
X126424699Y-97105932D01*
X126424700Y-97105934D01*
X126484768Y-97303954D01*
X126582315Y-97486450D01*
X126582317Y-97486452D01*
X126713589Y-97646410D01*
X126810209Y-97725702D01*
X126873550Y-97777685D01*
X127056046Y-97875232D01*
X127254066Y-97935300D01*
X127254065Y-97935300D01*
X127272529Y-97937118D01*
X127460000Y-97955583D01*
X127665934Y-97935300D01*
X127863954Y-97875232D01*
X128046450Y-97777685D01*
X128206410Y-97646410D01*
X128337685Y-97486450D01*
X128416643Y-97338730D01*
X128465605Y-97288888D01*
X128533742Y-97273428D01*
X128599422Y-97297260D01*
X128641791Y-97352818D01*
X128650000Y-97397186D01*
X128650000Y-97797844D01*
X128656401Y-97857372D01*
X128656403Y-97857379D01*
X128706645Y-97992086D01*
X128706649Y-97992093D01*
X128792809Y-98107187D01*
X128792812Y-98107190D01*
X128907906Y-98193350D01*
X128907913Y-98193354D01*
X129042620Y-98243596D01*
X129042627Y-98243598D01*
X129102155Y-98249999D01*
X129102172Y-98250000D01*
X129750000Y-98250000D01*
X129750000Y-97333012D01*
X129807007Y-97365925D01*
X129934174Y-97400000D01*
X130065826Y-97400000D01*
X130192993Y-97365925D01*
X130250000Y-97333012D01*
X130250000Y-98250000D01*
X130897828Y-98250000D01*
X130897844Y-98249999D01*
X130957372Y-98243598D01*
X130957379Y-98243596D01*
X131092086Y-98193354D01*
X131092093Y-98193350D01*
X131207187Y-98107190D01*
X131207190Y-98107187D01*
X131293350Y-97992093D01*
X131293354Y-97992086D01*
X131343596Y-97857379D01*
X131343598Y-97857372D01*
X131349999Y-97797844D01*
X131350000Y-97797827D01*
X131350000Y-97150000D01*
X130433012Y-97150000D01*
X130465925Y-97092993D01*
X130500000Y-96965826D01*
X130500000Y-96834174D01*
X130465925Y-96707007D01*
X130433012Y-96650000D01*
X131350000Y-96650000D01*
X131350000Y-96002172D01*
X131349999Y-96002155D01*
X131343598Y-95942627D01*
X131343596Y-95942620D01*
X131293354Y-95807913D01*
X131293350Y-95807906D01*
X131207190Y-95692812D01*
X131207187Y-95692809D01*
X131092093Y-95606649D01*
X131092086Y-95606645D01*
X130957379Y-95556403D01*
X130957372Y-95556401D01*
X130897844Y-95550000D01*
X130250000Y-95550000D01*
X130250000Y-96466988D01*
X130192993Y-96434075D01*
X130065826Y-96400000D01*
X129934174Y-96400000D01*
X129807007Y-96434075D01*
X129750000Y-96466988D01*
X129750000Y-95550000D01*
X129102155Y-95550000D01*
X129042627Y-95556401D01*
X129042620Y-95556403D01*
X128907913Y-95606645D01*
X128907906Y-95606649D01*
X128792812Y-95692809D01*
X128792809Y-95692812D01*
X128706649Y-95807906D01*
X128706645Y-95807913D01*
X128656403Y-95942620D01*
X128656401Y-95942627D01*
X128650000Y-96002155D01*
X128650000Y-96402813D01*
X128630315Y-96469852D01*
X128577511Y-96515607D01*
X128508353Y-96525551D01*
X128444797Y-96496526D01*
X128416642Y-96461267D01*
X128337685Y-96313550D01*
X128285702Y-96250209D01*
X128206410Y-96153589D01*
X128046452Y-96022317D01*
X128046453Y-96022317D01*
X128046450Y-96022315D01*
X127863954Y-95924768D01*
X127665934Y-95864700D01*
X127665932Y-95864699D01*
X127665934Y-95864699D01*
X127460000Y-95844417D01*
X127254067Y-95864699D01*
X127056043Y-95924769D01*
X127022634Y-95942627D01*
X126873550Y-96022315D01*
X126873548Y-96022316D01*
X126873547Y-96022317D01*
X126713589Y-96153589D01*
X126582317Y-96313547D01*
X126484769Y-96496043D01*
X126424699Y-96694067D01*
X126404417Y-96900000D01*
X125975583Y-96900000D01*
X125955300Y-96694066D01*
X125895232Y-96496046D01*
X125797685Y-96313550D01*
X125745702Y-96250209D01*
X125666410Y-96153589D01*
X125506452Y-96022317D01*
X125506453Y-96022317D01*
X125506450Y-96022315D01*
X125323954Y-95924768D01*
X125125934Y-95864700D01*
X125125932Y-95864699D01*
X125125934Y-95864699D01*
X124920000Y-95844417D01*
X124714067Y-95864699D01*
X124516043Y-95924769D01*
X124482634Y-95942627D01*
X124333550Y-96022315D01*
X124333548Y-96022316D01*
X124333547Y-96022317D01*
X124173589Y-96153589D01*
X124042317Y-96313547D01*
X123944769Y-96496043D01*
X123884699Y-96694067D01*
X123864417Y-96900000D01*
X123435583Y-96900000D01*
X123415300Y-96694066D01*
X123355232Y-96496046D01*
X123257685Y-96313550D01*
X123205702Y-96250209D01*
X123126410Y-96153589D01*
X122966452Y-96022317D01*
X122966453Y-96022317D01*
X122966450Y-96022315D01*
X122783954Y-95924768D01*
X122585934Y-95864700D01*
X122585932Y-95864699D01*
X122585934Y-95864699D01*
X122380000Y-95844417D01*
X122174067Y-95864699D01*
X121976043Y-95924769D01*
X121942634Y-95942627D01*
X121793550Y-96022315D01*
X121793548Y-96022316D01*
X121793547Y-96022317D01*
X121633589Y-96153589D01*
X121502317Y-96313547D01*
X121404769Y-96496043D01*
X121344699Y-96694067D01*
X121324417Y-96900000D01*
X115900500Y-96900000D01*
X115900500Y-90024500D01*
X115920185Y-89957461D01*
X115972989Y-89911706D01*
X116024500Y-89900500D01*
X117252485Y-89900500D01*
X117319524Y-89920185D01*
G37*
%TD.AperFunction*%
%TD*%
M02*
