%TF.GenerationSoftware,KiCad,Pcbnew,8.0.6*%
%TF.CreationDate,2024-10-30T20:06:35-05:00*%
%TF.ProjectId,PiLEDLights,50694c45-444c-4696-9768-74732e6b6963,rev?*%
%TF.SameCoordinates,Original*%
%TF.FileFunction,Drillmap*%
%TF.FilePolarity,Positive*%
%FSLAX45Y45*%
G04 Gerber Fmt 4.5, Leading zero omitted, Abs format (unit mm)*
G04 Created by KiCad (PCBNEW 8.0.6) date 2024-10-30 20:06:35*
%MOMM*%
%LPD*%
G01*
G04 APERTURE LIST*
%ADD10C,0.050000*%
%ADD11C,0.200000*%
G04 APERTURE END LIST*
D10*
X11540000Y-8940000D02*
X13270000Y-8940000D01*
X13270000Y-9900000D01*
X11540000Y-9900000D01*
X11540000Y-8940000D01*
D11*
X11798277Y-10213984D02*
X11798277Y-10013984D01*
X11798277Y-10013984D02*
X11845896Y-10013984D01*
X11845896Y-10013984D02*
X11874467Y-10023508D01*
X11874467Y-10023508D02*
X11893515Y-10042555D01*
X11893515Y-10042555D02*
X11903039Y-10061603D01*
X11903039Y-10061603D02*
X11912562Y-10099698D01*
X11912562Y-10099698D02*
X11912562Y-10128270D01*
X11912562Y-10128270D02*
X11903039Y-10166365D01*
X11903039Y-10166365D02*
X11893515Y-10185412D01*
X11893515Y-10185412D02*
X11874467Y-10204460D01*
X11874467Y-10204460D02*
X11845896Y-10213984D01*
X11845896Y-10213984D02*
X11798277Y-10213984D01*
X11998277Y-10213984D02*
X11998277Y-10080650D01*
X11998277Y-10118746D02*
X12007801Y-10099698D01*
X12007801Y-10099698D02*
X12017324Y-10090174D01*
X12017324Y-10090174D02*
X12036372Y-10080650D01*
X12036372Y-10080650D02*
X12055420Y-10080650D01*
X12122086Y-10213984D02*
X12122086Y-10080650D01*
X12122086Y-10013984D02*
X12112562Y-10023508D01*
X12112562Y-10023508D02*
X12122086Y-10033031D01*
X12122086Y-10033031D02*
X12131610Y-10023508D01*
X12131610Y-10023508D02*
X12122086Y-10013984D01*
X12122086Y-10013984D02*
X12122086Y-10033031D01*
X12245896Y-10213984D02*
X12226848Y-10204460D01*
X12226848Y-10204460D02*
X12217324Y-10185412D01*
X12217324Y-10185412D02*
X12217324Y-10013984D01*
X12350658Y-10213984D02*
X12331610Y-10204460D01*
X12331610Y-10204460D02*
X12322086Y-10185412D01*
X12322086Y-10185412D02*
X12322086Y-10013984D01*
X12579229Y-10213984D02*
X12579229Y-10013984D01*
X12579229Y-10013984D02*
X12645896Y-10156841D01*
X12645896Y-10156841D02*
X12712562Y-10013984D01*
X12712562Y-10013984D02*
X12712562Y-10213984D01*
X12893515Y-10213984D02*
X12893515Y-10109222D01*
X12893515Y-10109222D02*
X12883991Y-10090174D01*
X12883991Y-10090174D02*
X12864943Y-10080650D01*
X12864943Y-10080650D02*
X12826848Y-10080650D01*
X12826848Y-10080650D02*
X12807801Y-10090174D01*
X12893515Y-10204460D02*
X12874467Y-10213984D01*
X12874467Y-10213984D02*
X12826848Y-10213984D01*
X12826848Y-10213984D02*
X12807801Y-10204460D01*
X12807801Y-10204460D02*
X12798277Y-10185412D01*
X12798277Y-10185412D02*
X12798277Y-10166365D01*
X12798277Y-10166365D02*
X12807801Y-10147317D01*
X12807801Y-10147317D02*
X12826848Y-10137793D01*
X12826848Y-10137793D02*
X12874467Y-10137793D01*
X12874467Y-10137793D02*
X12893515Y-10128270D01*
X12988753Y-10080650D02*
X12988753Y-10280650D01*
X12988753Y-10090174D02*
X13007801Y-10080650D01*
X13007801Y-10080650D02*
X13045896Y-10080650D01*
X13045896Y-10080650D02*
X13064943Y-10090174D01*
X13064943Y-10090174D02*
X13074467Y-10099698D01*
X13074467Y-10099698D02*
X13083991Y-10118746D01*
X13083991Y-10118746D02*
X13083991Y-10175889D01*
X13083991Y-10175889D02*
X13074467Y-10194936D01*
X13074467Y-10194936D02*
X13064943Y-10204460D01*
X13064943Y-10204460D02*
X13045896Y-10213984D01*
X13045896Y-10213984D02*
X13007801Y-10213984D01*
X13007801Y-10213984D02*
X12988753Y-10204460D01*
X13169705Y-10194936D02*
X13179229Y-10204460D01*
X13179229Y-10204460D02*
X13169705Y-10213984D01*
X13169705Y-10213984D02*
X13160182Y-10204460D01*
X13160182Y-10204460D02*
X13169705Y-10194936D01*
X13169705Y-10194936D02*
X13169705Y-10213984D01*
X13169705Y-10090174D02*
X13179229Y-10099698D01*
X13179229Y-10099698D02*
X13169705Y-10109222D01*
X13169705Y-10109222D02*
X13160182Y-10099698D01*
X13160182Y-10099698D02*
X13169705Y-10090174D01*
X13169705Y-10090174D02*
X13169705Y-10109222D01*
M02*
